<svg width="31" height="34" viewBox="0 0 31 34" fill="none" xmlns="http://www.w3.org/2000/svg"><circle cx="18.8892" cy="22.037" r="10.963" fill="#171717" stroke="#fff" stroke-width="2"/><ellipse cx="7.5" cy="15" rx="6.5" ry="7" fill="#002CE5"/><path d="M19.9363 3.508l-2.6627-.633-.6325-2.662a.2774.2774 0 00-.5395 0l-.6331 2.662-2.6627.633a.277.277 0 00-.2125.2698c0 .1282.0882.2401.2125.2691l2.6627.6336.6331 2.6603a.2772.2772 0 00.2697.2148.2774.2774 0 00.2698-.2148l.6325-2.6603 2.6627-.6336a.2772.2772 0 000-.5389z" fill="#D9BFA0"/><path d="M7.5556 22.6666C3.3826 22.6666 0 19.2839 0 15.1111c0-4.1728 3.3827-7.5556 7.5556-7.5556 4.1728 0 7.5555 3.3828 7.5555 7.5556 0 4.1728-3.3827 7.5555-7.5556 7.5555zm0-13.8924c-2.0191 0-3.656 2.8371-3.656 6.3369s1.6369 6.3369 3.656 6.3369c3.4997 0 6.3369-2.8371 6.3369-6.3369s-2.8372-6.337-6.337-6.337z" fill="#fff"/></svg>